<svg width="30" height="31" viewBox="0 0 30 31" fill="none" xmlns="http://www.w3.org/2000/svg">
<path d="M14.625 0.96875C17.2031 0.96875 19.6641 1.67188 21.8906 2.96094C24.1172 4.25 25.875 6.00781 27.1641 8.23438C28.4531 10.4609 29.1562 12.9219 29.1562 15.5C29.1562 18.1367 28.4531 20.5391 27.1641 22.7656C25.875 24.9922 24.1172 26.8086 21.8906 28.0977C19.6641 29.3867 17.2031 30.0312 14.625 30.0312C11.9883 30.0312 9.58594 29.3867 7.35938 28.0977C5.13281 26.8086 3.31641 24.9922 2.02734 22.7656C0.738281 20.5391 0.09375 18.1367 0.09375 15.5C0.09375 12.9219 0.738281 10.4609 2.02734 8.23438C3.31641 6.00781 5.13281 4.25 7.35938 2.96094C9.58594 1.67188 11.9883 0.96875 14.625 0.96875ZM14.625 27.2188C16.7344 27.2188 18.668 26.6914 20.4844 25.6367C22.2422 24.582 23.707 23.1758 24.7617 21.3594C25.8164 19.6016 26.3438 17.6094 26.3438 15.5C26.3438 14.5625 26.2266 13.625 25.9922 12.6875H24.9375C24.6445 12.6875 24.4102 12.8047 24.2344 12.9805C24.0586 13.1562 24 13.332 24 13.5664V13.9766C24 14.3867 23.8242 14.6797 23.4727 14.7969L22.5938 15.2656C22.2422 15.4414 21.9492 15.4414 21.7148 15.207L20.6016 14.5039C20.3672 14.3867 20.0742 14.3281 19.8398 14.3867L19.6641 14.4453C19.3711 14.5625 19.1953 14.7383 19.0781 15.0312C18.9609 15.3242 19.0195 15.5586 19.1953 15.793L19.957 16.9648C20.1328 17.2578 20.3672 17.375 20.7188 17.375H21.2461C21.4805 17.375 21.6562 17.4922 21.832 17.668C22.0078 17.8438 22.125 18.0195 22.125 18.2539V18.957C22.125 19.1914 22.0664 19.3672 21.9492 19.4844L20.8359 20.9492C20.7188 21.0664 20.6602 21.2422 20.6602 21.3594L20.4258 22.6484C20.3672 22.8828 20.25 23.0586 20.1328 23.1758C19.5469 23.7031 19.0781 24.2891 18.668 24.875L17.9062 26.0469C17.5547 26.5156 17.1445 26.75 16.5586 26.75C16.207 26.75 15.9141 26.6914 15.6797 26.5156C15.4453 26.3984 15.2109 26.1641 15.0938 25.8711C14.7422 25.2266 14.625 24.5234 14.625 23.7617V22.0039C14.625 21.7695 14.5078 21.5938 14.332 21.418C14.1562 21.2422 13.9805 21.125 13.7461 21.125H12.2227C11.2852 21.125 10.5234 20.832 9.9375 20.1875C9.29297 19.6016 9 18.8398 9 17.9023V17.082C9 16.6133 9.11719 16.1445 9.35156 15.6758C9.58594 15.207 9.87891 14.8555 10.2891 14.5625L11.8711 13.332C12.457 12.9219 13.1016 12.6875 13.8047 12.6875H13.8633C14.332 12.6875 14.8594 12.8047 15.3281 13.0391L16.1484 13.4492C16.3828 13.5664 16.6172 13.625 16.8516 13.5078L19.6055 12.5703C19.7812 12.5703 19.957 12.4531 20.0742 12.2773C20.1914 12.1602 20.25 11.9258 20.25 11.6914C20.25 11.457 20.1328 11.2812 19.957 11.1055C19.7812 10.9297 19.6055 10.8125 19.3711 10.8125H18.7266C18.4922 10.8125 18.2578 10.7539 18.082 10.5195L17.7305 10.168C17.4961 9.99219 17.3203 9.875 17.0859 9.875H11.7539C11.5195 9.875 11.2852 9.81641 11.1094 9.64062C10.9336 9.46484 10.875 9.23047 10.875 8.99609V8.70312C10.875 8.52734 10.9336 8.35156 11.0508 8.17578C11.168 8 11.3438 7.88281 11.5781 7.82422L12.3984 7.58984C12.6328 7.58984 12.8086 7.47266 12.9258 7.23828L13.3945 6.53516C13.5703 6.30078 13.8047 6.125 14.1562 6.125H15.5625C15.7969 6.125 16.0312 6.06641 16.207 5.89062C16.3828 5.71484 16.5 5.48047 16.5 5.24609V3.95703C15.7969 3.83984 15.2109 3.78125 14.625 3.78125C12.5156 3.78125 10.5234 4.30859 8.76562 5.36328C6.94922 6.41797 5.54297 7.88281 4.48828 9.64062C3.43359 11.457 2.90625 13.3906 2.90625 15.5C2.90625 17.6094 3.43359 19.6016 4.48828 21.3594C5.54297 23.1758 6.94922 24.582 8.76562 25.6367C10.5234 26.6914 12.5156 27.2188 14.625 27.2188Z" fill="#606770"/>
</svg>
