<svg width="48" height="43" viewBox="0 0 48 43" fill="none" xmlns="http://www.w3.org/2000/svg">
<path d="M46.4189 16.5807C46.9932 17.2369 47.3213 18.0573 47.3213 18.8776C47.3213 19.7799 46.9932 20.5182 46.4189 21.1744L31.9814 36.2682C31.3252 36.9244 30.5049 37.2526 29.6025 37.2526C28.7002 37.2526 27.9619 37.0065 27.3057 36.3502C26.6494 35.694 26.3213 34.9557 26.3213 33.9713V26.7526C21.5635 26.8346 18.2002 27.0807 16.1494 27.5729C13.5244 28.2291 11.8018 29.4596 11.0635 31.1823C10.2432 32.9869 10.4072 35.6119 11.4736 39.1393C11.6377 39.9596 11.5557 40.6158 11.1455 41.2721C10.7354 41.9283 10.1611 42.2565 9.42285 42.4205C8.68457 42.5846 8.02832 42.5026 7.37207 42.0104C5.40332 40.6158 3.84473 38.9752 2.69629 37.0065C0.891602 34.2174 0.0712891 31.1002 0.0712891 27.6549C0.0712891 23.2252 1.30176 19.7799 3.84473 17.1549C5.97754 14.9401 9.25879 13.2994 13.5244 12.3151C16.8057 11.4948 21.0713 11.0846 26.3213 11.0026V3.78381C26.3213 2.88147 26.6494 2.14319 27.3057 1.48694C27.9619 0.830688 28.7002 0.502563 29.6025 0.502563C30.5049 0.502563 31.3252 0.830688 31.9814 1.48694L46.4189 16.5807ZM44.5322 19.3698C44.6143 19.2057 44.6963 19.0416 44.6963 18.8776C44.6963 18.7135 44.6143 18.5494 44.5322 18.3854L30.0947 3.29163C29.8486 3.12756 29.6025 3.12756 29.3564 3.20959C29.0283 3.37366 28.9463 3.53772 28.9463 3.78381V13.6276C23.5322 13.6276 19.3486 13.8737 16.3955 14.3658C12.1299 15.0221 8.84863 16.3346 6.63379 18.2213C4.00879 20.4362 2.69629 23.5533 2.69629 27.6549C2.69629 30.444 3.35254 32.9869 4.74707 35.2018C5.73145 37.0065 7.12598 38.5651 8.93066 39.8776C7.61816 35.1198 7.61816 31.5924 9.09473 29.1315C10.4072 26.9987 12.8682 25.6041 16.5596 24.8658C19.1846 24.3737 23.2861 24.1276 28.9463 24.1276V33.9713C28.9463 34.2994 29.0283 34.4635 29.3564 34.5455C29.6025 34.7096 29.8486 34.6276 30.0947 34.4635L44.5322 19.3698Z" fill="#606770"/>
</svg>
