<svg width="43" height="43" viewBox="0 0 43 43" fill="none" xmlns="http://www.w3.org/2000/svg">
<path d="M36.8213 0.5C38.2158 0.5 39.4463 1.07422 40.5127 2.05859C41.4971 3.125 42.0713 4.35547 42.0713 5.75V29.375C42.0713 30.8516 41.4971 32.082 40.5127 33.0664C39.4463 34.1328 38.2158 34.625 36.8213 34.625H25.0088L14.7549 42.3359C14.5908 42.5 14.3447 42.5 14.0986 42.5C13.8525 42.5 13.6064 42.418 13.4424 42.2539C13.2783 42.0898 13.1963 41.8438 13.1963 41.5156V34.625H5.32129C3.84473 34.625 2.61426 34.1328 1.62988 33.0664C0.563477 32.082 0.0712891 30.8516 0.0712891 29.375V5.75C0.0712891 4.35547 0.563477 3.125 1.62988 2.05859C2.61426 1.07422 3.84473 0.5 5.32129 0.5H36.8213ZM39.4463 29.375V5.75C39.4463 5.09375 39.1182 4.4375 38.626 3.94531C38.1338 3.45312 37.4775 3.125 36.8213 3.125H5.32129C4.58301 3.125 3.92676 3.45312 3.43457 3.94531C2.94238 4.4375 2.69629 5.09375 2.69629 5.75V29.375C2.69629 30.1133 2.94238 30.7695 3.43457 31.2617C3.92676 31.7539 4.58301 32 5.32129 32H15.8213V38.2344L24.1064 32H36.8213C37.4775 32 38.1338 31.7539 38.626 31.2617C39.1182 30.7695 39.4463 30.1133 39.4463 29.375Z" fill="#606770"/>
</svg>
