<svg width="36" height="37" viewBox="0 0 36 37" fill="none" xmlns="http://www.w3.org/2000/svg">
<path fill-rule="evenodd" clip-rule="evenodd" d="M15.5 28C22.4036 28 28 22.4036 28 15.5C28 8.59644 22.4036 3 15.5 3C8.59644 3 3 8.59644 3 15.5C3 22.4036 8.59644 28 15.5 28ZM15.5 31C24.0604 31 31 24.0604 31 15.5C31 6.93959 24.0604 0 15.5 0C6.93959 0 0 6.93959 0 15.5C0 24.0604 6.93959 31 15.5 31Z" fill="black"/>
<path fill-rule="evenodd" clip-rule="evenodd" d="M24.4393 25.4393C25.0251 24.8536 25.9749 24.8536 26.5607 25.4393L34.8137 33.6924C35.3995 34.2782 35.3995 35.2279 34.8137 35.8137C34.2279 36.3995 33.2782 36.3995 32.6924 35.8137L24.4393 27.5607C23.8536 26.9749 23.8536 26.0251 24.4393 25.4393Z" fill="black"/>
</svg>
