<svg width="38" height="37" viewBox="0 0 38 37" fill="none" xmlns="http://www.w3.org/2000/svg">
<path fill-rule="evenodd" clip-rule="evenodd" d="M17.9864 0.894269C18.5599 0.368577 19.4401 0.368577 20.0136 0.894269L37.0136 16.4776C37.3235 16.7617 37.5 17.1629 37.5 17.5833V35C37.5 35.8284 36.8284 36.5 36 36.5H23.5C22.6716 36.5 22 35.8284 22 35V25.9167C22 23.2817 20.1256 21.8333 18.5 21.8333C16.9309 21.8333 15 23.2221 15 26.2417V35C15 35.8284 14.3284 36.5 13.5 36.5H2C1.17157 36.5 0.5 35.8284 0.5 35V17.5833C0.5 17.1629 0.67647 16.7617 0.986413 16.4776L17.9864 0.894269ZM3.5 18.2432V33.5H12V26.2417C12 21.7779 15.0691 18.8333 18.5 18.8333C21.8744 18.8333 25 21.7183 25 25.9167V33.5H34.5V18.2432L19 4.03485L3.5 18.2432Z" fill="black"/>
</svg>
