<svg width="5" height="27" viewBox="0 0 5 27" fill="none" xmlns="http://www.w3.org/2000/svg">
<path d="M5 2.5C5 3.88071 3.88071 5 2.5 5C1.11929 5 0 3.88071 0 2.5C0 1.11929 1.11929 0 2.5 0C3.88071 0 5 1.11929 5 2.5Z" fill="black"/>
<path d="M5 13.5C5 14.8807 3.88071 16 2.5 16C1.11929 16 0 14.8807 0 13.5C0 12.1193 1.11929 11 2.5 11C3.88071 11 5 12.1193 5 13.5Z" fill="black"/>
<path d="M5 24.5C5 25.8807 3.88071 27 2.5 27C1.11929 27 0 25.8807 0 24.5C0 23.1193 1.11929 22 2.5 22C3.88071 22 5 23.1193 5 24.5Z" fill="black"/>
</svg>
