<svg width="39" height="38" viewBox="0 0 39 38" fill="none" xmlns="http://www.w3.org/2000/svg">
<path fill-rule="evenodd" clip-rule="evenodd" d="M26.7529 3H12.7529C7.78237 3 3.75293 7.02944 3.75293 12V26C3.75293 30.9706 7.78237 35 12.7529 35H26.7529C31.7235 35 35.7529 30.9706 35.7529 26V12C35.7529 7.02944 31.7235 3 26.7529 3ZM12.7529 0C6.12551 0 0.75293 5.37258 0.75293 12V26C0.75293 32.6274 6.12551 38 12.7529 38H26.7529C33.3803 38 38.7529 32.6274 38.7529 26V12C38.7529 5.37258 33.3803 0 26.7529 0H12.7529Z" fill="black"/>
<path fill-rule="evenodd" clip-rule="evenodd" d="M19.7529 7.5C20.5814 7.5 21.2529 8.17157 21.2529 9V17.5H29.7529C30.5814 17.5 31.2529 18.1716 31.2529 19C31.2529 19.8284 30.5814 20.5 29.7529 20.5H21.2529V29C21.2529 29.8284 20.5814 30.5 19.7529 30.5C18.9245 30.5 18.2529 29.8284 18.2529 29V20.5H9.75293C8.9245 20.5 8.25293 19.8284 8.25293 19C8.25293 18.1716 8.9245 17.5 9.75293 17.5H18.2529V9C18.2529 8.17157 18.9245 7.5 19.7529 7.5Z" fill="black"/>
</svg>
