<svg width="20" height="23" viewBox="0 0 20 23" fill="none" xmlns="http://www.w3.org/2000/svg">
<path d="M18.2474 10.8915L14.191 6.83513C13.3937 6.03668 12.7934 5.06341 12.4378 3.99254L11.9294 2.4675C11.7386 1.90018 11.3747 1.40692 10.889 1.05708C10.4034 0.707239 9.82025 0.5184 9.22168 0.517109C8.84703 0.515744 8.47577 0.588187 8.12911 0.730303C7.78245 0.872418 7.46717 1.08142 7.20129 1.34538C6.9354 1.60934 6.72411 1.92309 6.57948 2.2687C6.43485 2.61432 6.3597 2.98504 6.35834 3.3597V4.52163C6.36066 5.52619 6.52172 6.52407 6.83557 7.47834L7.28167 8.81664H2.33307C1.74976 8.81664 1.19034 9.04836 0.777876 9.46083C0.365413 9.87329 0.133694 10.4327 0.133694 11.016C0.135125 11.3745 0.222551 11.7274 0.38863 12.0452C0.554709 12.3629 0.794593 12.6361 1.08814 12.8419C0.794323 13.0426 0.553849 13.3118 0.38754 13.6264C0.221231 13.9409 0.1341 14.2913 0.133694 14.6471C0.12545 15.0854 0.247159 15.5163 0.483478 15.8856C0.719797 16.2548 1.06015 16.5459 1.46162 16.722C1.27514 17.0362 1.17493 17.394 1.17114 17.7594C1.17023 18.3218 1.38479 18.8631 1.7707 19.2722C2.15661 19.6812 2.68455 19.9269 3.24602 19.9588V20.104C3.24602 20.6873 3.47774 21.2467 3.8902 21.6592C4.30266 22.0717 4.86208 22.3034 5.4454 22.3034H13.2158C14.5044 22.3022 15.7753 22.004 16.9299 21.4319L17.2515 21.2659H19.8451V10.8915H18.2474ZM17.7702 19.1911H16.7328L15.9754 19.5749C15.1069 20.002 14.1525 20.2255 13.1847 20.2285H6.06786C5.83636 20.2377 5.60844 20.1692 5.42042 20.0338C5.2324 19.8984 5.09511 19.704 5.03042 19.4815L4.77106 18.579L3.88923 18.1536C3.68613 18.0709 3.51446 17.9259 3.3989 17.7395C3.28334 17.5531 3.22981 17.3349 3.24602 17.1162L3.42238 16.0787L2.63393 15.311C2.46239 15.1435 2.35418 14.9217 2.3277 14.6834C2.30122 14.4451 2.35811 14.205 2.48869 14.0039L3.1734 12.873L2.41607 11.7319C2.37273 11.6792 2.34044 11.6183 2.32111 11.5529C2.30179 11.4875 2.29582 11.4189 2.30356 11.3512C2.3113 11.2834 2.3326 11.2179 2.36619 11.1585C2.39978 11.0992 2.44496 11.0472 2.49906 11.0056C2.59757 10.9236 2.72391 10.8828 2.85179 10.8915H10.1658L8.80671 6.82476C8.5589 6.0822 8.43278 5.30445 8.43323 4.52163V3.37007C8.43848 3.16537 8.52214 2.9705 8.66694 2.8257C8.81173 2.68091 9.0066 2.59724 9.21131 2.59199C9.37399 2.59211 9.53253 2.64322 9.66466 2.73813C9.79678 2.83303 9.89584 2.96696 9.94789 3.12109L10.5081 4.66688C10.9557 6.03102 11.7119 7.27356 12.7179 8.29792L17.3863 12.9664H17.7702V19.1911Z" fill="#6A6A6A"/>
</svg>
