<svg width="21" height="20" viewBox="0 0 21 20" fill="none" xmlns="http://www.w3.org/2000/svg">
<circle cx="10.6247" cy="9.91107" r="9.6745" fill="#4E8ADD"/>
<path d="M15.2834 8.99915H17.1076C17.6003 11.0558 16.8281 13.9196 16.3804 15.0945C16.3804 15.0945 14.7764 14.9572 13.7639 15.0945C12.7429 15.2329 12.2369 15.6247 11.2216 15.7996C9.49325 16.0975 6.73075 15.7996 6.73075 15.7996C5.75093 15.5918 5.82764 14.6367 5.98846 14.1852C4.72658 13.8883 4.92351 12.8029 5.17971 12.2973C4.11317 11.6799 4.45449 10.5666 4.75847 10.0871C4.50117 10.0637 3.98657 9.81336 3.98657 8.99915C3.98657 8.18494 4.50117 7.88829 4.75847 7.84174H10.3367C9.79876 7.11668 8.71576 5.37887 8.6877 4.22813C8.65963 3.07739 9.40095 2.62596 9.77511 2.54408C9.97396 2.49725 10.4629 2.63513 10.8277 3.56134C11.1926 4.48754 13.9502 7.57246 15.2834 8.99915Z" fill="#CCDEF5"/>
<path fill-rule="evenodd" clip-rule="evenodd" d="M9.74088 2.39942C10.0486 2.32695 10.5906 2.55462 10.9657 3.50679C11.0486 3.71714 11.2772 4.06864 11.6091 4.512C11.9372 4.9504 12.3557 5.4649 12.8056 5.99651C13.6857 7.03636 14.6818 8.13652 15.3477 8.85053H17.1075C17.1761 8.85053 17.2359 8.89764 17.2519 8.96443C17.505 10.0211 17.4317 11.2741 17.2429 12.4019C17.0538 13.532 16.7462 14.5511 16.519 15.1472C16.4954 15.2092 16.4336 15.248 16.3676 15.2423L16.3633 15.2419L16.35 15.2409L16.2981 15.2368C16.2527 15.2333 16.1867 15.2286 16.1042 15.2232C15.9392 15.2126 15.7087 15.1998 15.4468 15.1913C14.9208 15.1742 14.277 15.1746 13.7836 15.2415C13.2895 15.3085 12.9202 15.4364 12.5407 15.5729C12.5226 15.5794 12.5045 15.586 12.4864 15.5925C12.1233 15.7234 11.744 15.8601 11.2466 15.9459C10.3661 16.0976 9.23026 16.0969 8.32176 16.0596C7.866 16.0409 7.46464 16.0128 7.17716 15.9894C7.03339 15.9777 6.91802 15.9672 6.83847 15.9596L6.74692 15.9505L6.72303 15.948L6.71525 15.9472L6.69958 15.9455C6.43084 15.8885 6.22544 15.7772 6.07454 15.629C5.92399 15.4811 5.83504 15.3028 5.78793 15.1209C5.71266 14.8303 5.74204 14.5237 5.80203 14.2883C5.54128 14.2073 5.33989 14.0888 5.18976 13.9421C5.01108 13.7676 4.91264 13.5605 4.86918 13.3493C4.7957 12.9923 4.8785 12.6227 4.99013 12.3541C4.49629 12.0228 4.31688 11.5752 4.30651 11.1439C4.29784 10.7836 4.40652 10.4396 4.53351 10.1845C4.41305 10.1391 4.28344 10.0617 4.16879 9.94246C3.97828 9.74428 3.83789 9.43977 3.83789 8.99903C3.83789 8.10579 4.41121 7.7535 4.73184 7.69549C4.74056 7.69392 4.74941 7.69312 4.75828 7.69312H10.0475C9.79015 7.32245 9.46838 6.81006 9.18856 6.26196C8.84543 5.58985 8.55395 4.84242 8.53906 4.23163C8.509 2.99911 9.3105 2.49358 9.74318 2.3989L9.77493 2.54396L9.74088 2.39942ZM4.84247 10.2355C4.71537 10.4608 4.59519 10.7951 4.60341 11.1368C4.61195 11.492 4.75825 11.8618 5.20561 12.1397H5.48768C5.48768 12.1397 5.70905 12.0996 5.72628 12.1798C5.7435 12.26 5.48768 12.3541 5.48768 12.3541L5.28205 12.4271C5.177 12.6609 5.09843 12.9899 5.16007 13.2895C5.19308 13.4499 5.266 13.6014 5.39729 13.7297C5.52199 13.8515 5.70613 13.9589 5.9753 14.0289C5.9753 14.0289 6.4428 13.8991 6.47536 13.9744C6.50792 14.0496 6.10839 14.2949 6.10839 14.2949C6.04559 14.5013 6.00872 14.7889 6.07543 15.0464C6.11151 15.1858 6.17705 15.3134 6.28266 15.4171C6.38676 15.5194 6.53684 15.6054 6.75404 15.6527L6.77708 15.6551L6.8668 15.6639C6.94508 15.6714 7.05903 15.6818 7.20124 15.6934C7.48574 15.7165 7.88303 15.7443 8.33394 15.7628C9.23877 15.8 10.3483 15.7993 11.1961 15.6532C11.6674 15.572 12.025 15.4431 12.3895 15.3117C12.4064 15.3057 12.4232 15.2996 12.4401 15.2935C12.8227 15.1558 13.2168 15.0186 13.7437 14.9472C14.263 14.8768 14.9274 14.8773 15.4565 14.8945C15.7222 14.9031 15.956 14.9161 16.1233 14.9269C16.1853 14.9309 16.2381 14.9346 16.2802 14.9376C16.4963 14.3475 16.775 13.3988 16.95 12.3529C17.1291 11.2828 17.1974 10.1245 16.9888 9.14752H15.2832C15.2421 9.14752 15.2028 9.13046 15.1747 9.10041C14.5069 8.38583 13.4825 7.25606 12.5789 6.18837C12.1272 5.65463 11.7045 5.13508 11.3713 4.68997C11.0419 4.24983 10.789 3.86839 10.6894 3.61564C10.3347 2.71539 9.89895 2.66731 9.80897 2.6885L9.80667 2.68904C9.49102 2.75811 8.80988 3.15543 8.83596 4.22439C8.84912 4.76434 9.11319 5.46118 9.45307 6.12692C9.79034 6.78757 10.191 7.39631 10.4558 7.75313C10.4892 7.79819 10.4944 7.85825 10.4692 7.90836C10.444 7.95848 10.3927 7.99011 10.3366 7.99011H4.77269C4.57258 8.03273 4.13488 8.27863 4.13488 8.99903C4.13488 9.3725 4.25178 9.60026 4.38289 9.73665C4.51458 9.87363 4.66973 9.9281 4.7656 9.93847C4.7656 9.93847 5.0869 9.97486 5.16891 9.97486C5.25093 9.97486 5.48768 10.087 5.48768 10.087L4.84247 10.2355Z" fill="#0A66C2"/>
</svg>
