<svg width="23" height="17" viewBox="0 0 23 17" fill="none" xmlns="http://www.w3.org/2000/svg">
<path d="M22.3248 7.65092L17.6267 14.7848H15.191L19.2675 8.67004H7.03805C6.5134 8.65922 5.99176 8.75188 5.50292 8.94271C5.01409 9.13354 4.56764 9.41882 4.18908 9.78223C3.81052 10.1456 3.50727 10.5801 3.29665 11.0607C3.08604 11.5414 2.97218 12.0588 2.96158 12.5835V12.7465C2.95926 13.1753 3.0246 13.6018 3.15521 14.0102L4.10299 16.823H1.94246L1.1985 14.5605C1.01597 13.9522 0.923272 13.3205 0.92334 12.6854C0.939452 11.0743 1.59078 9.53463 2.73577 8.40109C3.88076 7.26755 5.42687 6.63172 7.03805 6.6318H19.2675L15.191 0.51709H17.6267L22.3248 7.65092Z" fill="#6A6A6A"/>
</svg>
