<svg width="25" height="21" viewBox="0 0 25 21" fill="none" xmlns="http://www.w3.org/2000/svg">
<path d="M7.12415 6.09703H18.284V7.21302H7.12415V6.09703ZM7.12415 10.561H14.9361V9.445H7.12415V10.561ZM24.98 8.32901C24.9965 9.55094 24.7169 10.7587 24.1649 11.849C23.613 12.9393 22.8052 13.8797 21.8106 14.5897L12.7041 20.6049V16.1409H8.24014C6.16829 16.1409 4.1813 15.3179 2.71628 13.8529C1.25126 12.3878 0.428223 10.4009 0.428223 8.32901C0.428223 6.25716 1.25126 4.27017 2.71628 2.80515C4.1813 1.34013 6.16829 0.51709 8.24014 0.51709H17.168C19.2399 0.51709 21.2269 1.34013 22.6919 2.80515C24.1569 4.27017 24.98 6.25716 24.98 8.32901ZM22.748 8.32901C22.748 6.84912 22.1601 5.42984 21.1137 4.38339C20.0672 3.33695 18.6479 2.74907 17.168 2.74907H8.24014C6.76025 2.74907 5.34097 3.33695 4.29453 4.38339C3.24808 5.42984 2.6602 6.84912 2.6602 8.32901C2.6602 9.8089 3.24808 11.2282 4.29453 12.2746C5.34097 13.3211 6.76025 13.9089 8.24014 13.9089H14.9361V16.4534L20.516 12.793C21.2231 12.2866 21.796 11.6153 22.1849 10.8375C22.5739 10.0596 22.7672 9.19851 22.748 8.32901Z" fill="#6A6A6A"/>
</svg>
