<svg width="50" height="12" viewBox="0 0 50 12" fill="none" xmlns="http://www.w3.org/2000/svg">
<path d="M0.800049 5.99985C0.800049 3.02985 3.23005 0.599854 6.20005 0.599854C9.17005 0.599854 11.6 3.02985 11.6 5.99985C11.6 8.96985 9.17005 11.3999 6.20005 11.3999C3.23005 11.3999 0.800049 8.96985 0.800049 5.99985ZM25.1 11.3999C28.07 11.3999 30.5 8.96985 30.5 5.99985C30.5 3.02985 28.07 0.599854 25.1 0.599854C22.13 0.599854 19.7 3.02985 19.7 5.99985C19.7 8.96985 22.13 11.3999 25.1 11.3999ZM44 11.3999C46.97 11.3999 49.4 8.96985 49.4 5.99985C49.4 3.02985 46.97 0.599854 44 0.599854C41.03 0.599854 38.6 3.02985 38.6 5.99985C38.6 8.96985 41.03 11.3999 44 11.3999Z" fill="#536471"/>
</svg>
